<svg width="600" height="600" xmlns="http://www.w3.org/2000/svg">
 <g>
  <title>Layer 1</title>
  <text transform="matrix(1 0 0 1 0 0)" x="298" y="398" font-size="120" fill="#ff6600" font-family="'Lemonada'" text-anchor="middle" dominant-baseline="middle" id="svg_1">PTools</text>
  <path transform="rotate(37 297.839 263.35)" stroke="null" id="svg_9" d="m155.31763,341.79399c17.25029,-0.0952 34.50058,-0.19042 51.75087,-0.28562c0.11358,-15.05885 0.22714,-30.1177 0.3407,-45.17653c17.16788,0 34.33577,0 51.50366,0c0,-15.15124 0,-30.30248 0,-45.45371c17.60753,0 35.21503,0 52.82256,0c0,-14.78169 0,-29.56338 0,-44.34507c17.39013,0 34.78026,0 52.17042,0c0,-14.78168 0,-29.56338 0,-44.34507c25.86784,0 51.73568,0 77.60351,0c0,7.39085 0,14.78169 0,22.17254c-17.1728,0 -34.34552,0 -51.51832,0c0,14.96646 0,29.93292 0,44.89939c-17.39012,0 -34.78025,0 -52.17042,0c0,14.96647 0,29.93293 0,44.89939c-17.39015,0 -34.78026,0 -52.17042,0c0,14.96646 0,29.93293 0,44.89936c-17.60753,0 -35.21504,0 -52.82255,0c0,15.15125 0,30.30248 0,45.4537c-26.08522,0 -52.17043,0 -78.25564,0c1.16289,-7.34464 -1.98245,-15.62654 0.74561,-22.71837l0,-0.00001z" stroke-dasharray="5,2,2,2,2,2" fill="#ff7f00"/>
  <path transform="rotate(120 289.261 178.531)" stroke="null" id="svg_17" d="m303.74639,213.78607l-5.63358,-20.38623c1.65097,-1.49734 3.20057,-3.09949 4.66327,-4.81394l19.70303,5.82464c2.0782,-3.12943 3.86675,-6.45352 5.46703,-9.90488l-14.66323,-14.67389c0.70239,-2.15616 1.31064,-4.34976 1.74511,-6.61074l19.76096,-5.12089c0.14482,-1.88664 0.2824,-3.78077 0.2824,-5.71234s-0.14482,-3.81821 -0.2824,-5.70485l-19.76096,-5.12089c-0.44171,-2.26098 -1.04996,-4.45457 -1.74511,-6.61074l14.67047,-14.67389c-1.60752,-3.44387 -3.39608,-6.77545 -5.47427,-9.90488l-19.70303,5.81715c-1.45546,-1.70696 -3.0123,-3.30911 -4.66327,-4.81394l5.63358,-20.37874c-3.02678,-2.14119 -6.24907,-3.99789 -9.58722,-5.65244l-14.19256,15.16801c-2.0782,-0.72621 -4.20708,-1.3476 -6.39389,-1.80429l-4.94567,-20.43864c-1.832,-0.14225 -3.65676,-0.29198 -5.52496,-0.29198s-3.69296,0.14973 -5.51772,0.29198l-4.95291,20.43864c-2.18681,0.45669 -4.30845,1.07808 -6.39389,1.80429l-14.19256,-15.16801c-3.33091,1.67702 -6.54595,3.52623 -9.57273,5.6749l5.63358,20.37874c-1.65097,1.49734 -3.20781,3.10697 -4.65603,4.80645l-19.71028,-5.82464c-2.0782,3.12943 -3.86675,6.46101 -5.46703,9.91236l14.67047,14.67389c-0.69515,2.15616 -1.3034,4.34976 -1.74511,6.61074l-19.7682,5.12089c-0.13758,1.88664 -0.2824,3.78077 -0.2824,5.70485s0.14482,3.81821 0.2824,5.71234l19.7682,5.12089c0.44171,2.26098 1.04996,4.45457 1.74511,6.61074l-14.67047,14.67389c1.60028,3.44387 3.38884,6.77545 5.46703,9.90488l19.71028,-5.82464c1.44822,1.71445 3.00506,3.30911 4.65603,4.81394l-5.63358,20.38623c3.02678,2.14119 6.24907,3.9904 9.57998,5.65244l14.19256,-15.16801c2.08544,0.72621 4.20708,1.35509 6.39389,1.80429l4.95291,20.43115c1.82476,0.14973 3.65676,0.29198 5.52496,0.29198s3.69296,-0.14973 5.52496,-0.29198l4.94567,-20.43115c2.18681,-0.45669 4.3157,-1.08557 6.39389,-1.80429l14.19256,15.16801c3.32367,-1.67702 6.54595,-3.52623 9.57273,-5.66742zm-40.63706,-35.94355c-13.59155,0 -24.6125,-11.39473 -24.6125,-25.44723s11.02096,-25.43974 24.6125,-25.43974s24.60526,11.38724 24.60526,25.43974s-11.01371,25.44723 -24.60526,25.44723zm112.17913,53.19286c0.13758,-4.09521 -0.43447,-8.2653 -1.66545,-12.38297l9.00793,-13.27388c-1.36133,-2.62034 -2.89644,-5.10592 -4.64155,-7.36689l-15.36562,3.33157c-3.09919,-2.72515 -6.62561,-4.85137 -10.39822,-6.37117l-4.42431,-15.56481c-2.79506,-0.50909 -5.62634,-0.7861 -8.49381,-0.79359l-7.05283,14.49421c-2.02027,0.40428 -4.04053,0.9583 -6.0246,1.7444c-1.86096,0.73369 -3.59883,1.64707 -5.26428,2.6428l-14.52565,-6.13159c-2.15061,1.96151 -4.11295,4.08024 -5.88701,6.37865l6.56768,14.73379c-1.87545,3.70591 -3.16436,7.69631 -3.75813,11.86639l-13.69292,7.93588c0.13758,2.90483 0.55032,5.80966 1.18754,8.72198l15.23528,3.88559c1.67269,3.92302 3.91744,7.43427 6.63285,10.42895l-2.54887,16.00652c2.31715,1.72194 4.77913,3.2043 7.33523,4.49201l12.41849,-9.88242c3.88123,1.05562 7.94349,1.4599 12.03471,1.123l10.51408,12.0311c1.44822,-0.42674 2.8892,-0.88343 4.3157,-1.44493c1.26719,-0.49412 2.46197,-1.07808 3.65676,-1.66953l0.26792,-16.20866c3.2947,-2.53798 6.10425,-5.59255 8.34175,-9.02894l15.64802,-1.00322c1.10065,-2.68772 2.02027,-5.48025 2.66473,-8.34765l-12.0854,-10.34659zm-30.1447,15.02577c-8.69656,3.4289 -18.4286,-1.07808 -21.75227,-10.06959s1.03548,-19.06109 9.73204,-22.49747c8.69656,-3.4289 18.44308,1.07808 21.76675,10.06959c3.31642,8.9915 -1.04996,19.06109 -9.74652,22.49747z" stroke-dasharray="5,2,2,2,2,2" fill="#007f7f"/>
 </g>

</svg>